<mxfile host="65bd71144e">
    <diagram id="gnVa5umi9aZT9KWG7_A7" name="Page-1">
        <mxGraphModel dx="965" dy="676" grid="1" gridSize="10" guides="1" tooltips="1" connect="1" arrows="1" fold="1" page="1" pageScale="1" pageWidth="2336" pageHeight="1654" math="0" shadow="0">
            <root>
                <mxCell id="0"/>
                <mxCell id="1" parent="0"/>
                <mxCell id="2" value="Order" style="swimlane;childLayout=stackLayout;resizeParent=1;resizeParentMax=0;horizontal=1;startSize=20;horizontalStack=0;strokeColor=#2D7600;fillColor=#60a917;fontColor=#ffffff;strokeWidth=4;shadow=0;rounded=0;" parent="1" vertex="1">
                    <mxGeometry x="110" y="92.5" width="2190" height="747.5" as="geometry"/>
                </mxCell>
                <mxCell id="27" style="edgeStyle=orthogonalEdgeStyle;rounded=0;orthogonalLoop=1;jettySize=auto;html=1;exitX=1;exitY=0.5;exitDx=0;exitDy=0;entryX=0.5;entryY=1;entryDx=0;entryDy=0;" parent="2" source="51" target="38" edge="1">
                    <mxGeometry relative="1" as="geometry"/>
                </mxCell>
                <mxCell id="29" style="edgeStyle=orthogonalEdgeStyle;rounded=0;orthogonalLoop=1;jettySize=auto;html=1;exitX=0.25;exitY=1;exitDx=0;exitDy=0;" parent="2" source="15" target="32" edge="1">
                    <mxGeometry relative="1" as="geometry"/>
                </mxCell>
                <mxCell id="58" style="edgeStyle=orthogonalEdgeStyle;rounded=0;orthogonalLoop=1;jettySize=auto;html=1;exitX=1;exitY=0.5;exitDx=0;exitDy=0;entryX=0.75;entryY=1;entryDx=0;entryDy=0;" parent="2" source="53" target="39" edge="1">
                    <mxGeometry relative="1" as="geometry"/>
                </mxCell>
                <mxCell id="59" style="edgeStyle=orthogonalEdgeStyle;rounded=0;orthogonalLoop=1;jettySize=auto;html=1;exitX=0.25;exitY=0;exitDx=0;exitDy=0;" parent="2" source="55" target="25" edge="1">
                    <mxGeometry relative="1" as="geometry">
                        <Array as="points">
                            <mxPoint x="1920" y="560"/>
                        </Array>
                    </mxGeometry>
                </mxCell>
                <mxCell id="188" style="edgeStyle=orthogonalEdgeStyle;rounded=0;orthogonalLoop=1;jettySize=auto;html=1;exitX=0.5;exitY=1;exitDx=0;exitDy=0;entryX=0.5;entryY=0;entryDx=0;entryDy=0;" parent="2" source="155" target="160" edge="1">
                    <mxGeometry relative="1" as="geometry"/>
                </mxCell>
                <mxCell id="167" value="" style="edgeStyle=orthogonalEdgeStyle;rounded=0;orthogonalLoop=1;jettySize=auto;html=1;" parent="2" source="159" target="163" edge="1">
                    <mxGeometry relative="1" as="geometry"/>
                </mxCell>
                <mxCell id="190" style="edgeStyle=orthogonalEdgeStyle;rounded=0;orthogonalLoop=1;jettySize=auto;html=1;exitX=1;exitY=0.5;exitDx=0;exitDy=0;entryX=0;entryY=0.75;entryDx=0;entryDy=0;" parent="2" source="160" target="157" edge="1">
                    <mxGeometry relative="1" as="geometry">
                        <Array as="points">
                            <mxPoint x="450" y="420"/>
                            <mxPoint x="450" y="148"/>
                        </Array>
                    </mxGeometry>
                </mxCell>
                <mxCell id="192" style="edgeStyle=orthogonalEdgeStyle;rounded=0;orthogonalLoop=1;jettySize=auto;html=1;exitX=0.5;exitY=1;exitDx=0;exitDy=0;entryX=0.25;entryY=1;entryDx=0;entryDy=0;" parent="2" source="160" target="159" edge="1">
                    <mxGeometry relative="1" as="geometry"/>
                </mxCell>
                <mxCell id="193" style="edgeStyle=orthogonalEdgeStyle;rounded=0;orthogonalLoop=1;jettySize=auto;html=1;exitX=0.75;exitY=0;exitDx=0;exitDy=0;entryX=1;entryY=0.75;entryDx=0;entryDy=0;" parent="2" source="163" target="157" edge="1">
                    <mxGeometry relative="1" as="geometry"/>
                </mxCell>
                <mxCell id="3" value="customer" style="swimlane;startSize=20;horizontal=0;" parent="2" vertex="1">
                    <mxGeometry y="20" width="2190" height="292.5" as="geometry">
                        <mxRectangle x="20" width="1860" height="20" as="alternateBounds"/>
                    </mxGeometry>
                </mxCell>
                <mxCell id="222" style="edgeStyle=orthogonalEdgeStyle;rounded=0;orthogonalLoop=1;jettySize=auto;html=1;exitX=0.5;exitY=1;exitDx=0;exitDy=0;entryX=0.382;entryY=-0.032;entryDx=0;entryDy=0;entryPerimeter=0;fontColor=#000000;" parent="3" source="14" target="221" edge="1">
                    <mxGeometry relative="1" as="geometry">
                        <Array as="points">
                            <mxPoint x="818" y="143"/>
                            <mxPoint x="818" y="170"/>
                        </Array>
                    </mxGeometry>
                </mxCell>
                <mxCell id="14" value="ثبت آدرس گیرنده&amp;nbsp;" style="whiteSpace=wrap;html=1;fillColor=#60a917;strokeColor=#2D7600;fontColor=#ffffff;" parent="3" vertex="1">
                    <mxGeometry x="780" y="82.5" width="90" height="60" as="geometry"/>
                </mxCell>
                <mxCell id="15" value="&lt;font style=&quot;font-size: 18px&quot;&gt;انتخاب خدمات&lt;/font&gt;" style="rounded=0;whiteSpace=wrap;html=1;fillColor=#60a917;strokeColor=#2D7600;fontColor=#ffffff;" parent="3" vertex="1">
                    <mxGeometry x="1230" y="85" width="120" height="60" as="geometry"/>
                </mxCell>
                <mxCell id="16" value="&lt;font style=&quot;font-size: 18px&quot;&gt;پایان&lt;/font&gt;" style="ellipse;whiteSpace=wrap;html=1;rounded=0;fillColor=#0050ef;strokeColor=#001DBC;fontColor=#ffffff;" parent="3" vertex="1">
                    <mxGeometry x="2080" y="110" width="65" height="60" as="geometry"/>
                </mxCell>
                <mxCell id="17" style="edgeStyle=orthogonalEdgeStyle;rounded=0;orthogonalLoop=1;jettySize=auto;html=1;exitX=1;exitY=0.5;exitDx=0;exitDy=0;entryX=0;entryY=0.5;entryDx=0;entryDy=0;" parent="3" source="19" target="15" edge="1">
                    <mxGeometry relative="1" as="geometry"/>
                </mxCell>
                <mxCell id="197" style="edgeStyle=orthogonalEdgeStyle;rounded=0;orthogonalLoop=1;jettySize=auto;html=1;exitX=0.5;exitY=0;exitDx=0;exitDy=0;entryX=0.5;entryY=0;entryDx=0;entryDy=0;" parent="3" source="19" target="158" edge="1">
                    <mxGeometry relative="1" as="geometry"/>
                </mxCell>
                <mxCell id="19" value="&amp;nbsp;ثبت مرسوله جدید" style="rhombus;whiteSpace=wrap;html=1;fillColor=#a20025;strokeColor=#6F0000;fontColor=#ffffff;" parent="3" vertex="1">
                    <mxGeometry x="1088" y="55" width="120" height="120" as="geometry"/>
                </mxCell>
                <mxCell id="20" value="&lt;font style=&quot;font-size: 19px&quot; color=&quot;#191919&quot;&gt;خیر&lt;/font&gt;" style="text;html=1;strokeColor=none;fillColor=none;align=center;verticalAlign=middle;whiteSpace=wrap;rounded=0;" parent="3" vertex="1">
                    <mxGeometry x="1190" y="77.5" width="40" height="20" as="geometry"/>
                </mxCell>
                <mxCell id="21" style="edgeStyle=orthogonalEdgeStyle;rounded=0;orthogonalLoop=1;jettySize=auto;html=1;exitX=1;exitY=0.5;exitDx=0;exitDy=0;entryX=0;entryY=0.5;entryDx=0;entryDy=0;" parent="3" source="22" target="19" edge="1">
                    <mxGeometry relative="1" as="geometry"/>
                </mxCell>
                <mxCell id="22" value="&lt;font style=&quot;font-size: 16px&quot;&gt;انتخاب شرکت پستی&lt;/font&gt;" style="whiteSpace=wrap;html=1;rounded=0;fontColor=#ffffff;strokeColor=#2D7600;fillColor=#60a917;" parent="3" vertex="1">
                    <mxGeometry x="980" y="91.25" width="100" height="47.5" as="geometry"/>
                </mxCell>
                <mxCell id="23" value="&lt;font style=&quot;font-size: 19px&quot; color=&quot;#191919&quot;&gt;بله&lt;/font&gt;" style="text;html=1;strokeColor=none;fillColor=none;align=center;verticalAlign=middle;whiteSpace=wrap;rounded=0;" parent="3" vertex="1">
                    <mxGeometry x="1048" y="10" width="40" height="20" as="geometry"/>
                </mxCell>
                <mxCell id="24" style="edgeStyle=orthogonalEdgeStyle;rounded=0;orthogonalLoop=1;jettySize=auto;html=1;exitX=1;exitY=0.5;exitDx=0;exitDy=0;" parent="3" source="25" target="16" edge="1">
                    <mxGeometry relative="1" as="geometry"/>
                </mxCell>
                <mxCell id="25" value="نمایش کد رهگیری و فاکتور&amp;nbsp;" style="whiteSpace=wrap;html=1;rounded=0;fontColor=#ffffff;strokeColor=#2D7600;fillColor=#60a917;" parent="3" vertex="1">
                    <mxGeometry x="1860" y="110" width="120" height="60" as="geometry"/>
                </mxCell>
                <mxCell id="152" value="&lt;font style=&quot;font-size: 24px&quot;&gt;شروع&lt;/font&gt;" style="ellipse;whiteSpace=wrap;html=1;aspect=fixed;fillColor=#0050ef;strokeColor=#001DBC;fontColor=#ffffff;" parent="3" vertex="1">
                    <mxGeometry x="30" y="80" width="75" height="75" as="geometry"/>
                </mxCell>
                <mxCell id="154" value="&lt;font style=&quot;font-size: 15px&quot;&gt;ثبت سفارش داخلی&amp;nbsp;&lt;/font&gt;" style="whiteSpace=wrap;html=1;fillColor=#60a917;strokeColor=#2D7600;fontColor=#ffffff;" parent="3" vertex="1">
                    <mxGeometry x="180" y="82.5" width="100" height="70" as="geometry"/>
                </mxCell>
                <mxCell id="151" value="" style="edgeStyle=orthogonalEdgeStyle;rounded=0;orthogonalLoop=1;jettySize=auto;html=1;" parent="3" source="152" target="154" edge="1">
                    <mxGeometry relative="1" as="geometry"/>
                </mxCell>
                <mxCell id="155" value="&lt;font style=&quot;font-size: 19px&quot;&gt;پرداخت در محل&amp;nbsp;&lt;/font&gt;" style="whiteSpace=wrap;html=1;fillColor=#60a917;strokeColor=#2D7600;fontColor=#ffffff;" parent="3" vertex="1">
                    <mxGeometry x="330" y="87.5" width="120" height="60" as="geometry"/>
                </mxCell>
                <mxCell id="153" value="" style="edgeStyle=orthogonalEdgeStyle;rounded=0;orthogonalLoop=1;jettySize=auto;html=1;" parent="3" source="154" target="155" edge="1">
                    <mxGeometry relative="1" as="geometry"/>
                </mxCell>
                <mxCell id="157" value="&lt;font style=&quot;font-size: 14px&quot;&gt;ثبت آدرس فرستنده&lt;/font&gt;" style="whiteSpace=wrap;html=1;fillColor=#60a917;strokeColor=#2D7600;fontColor=#ffffff;" parent="3" vertex="1">
                    <mxGeometry x="500" y="82.5" width="90" height="60" as="geometry"/>
                </mxCell>
                <mxCell id="159" value="&lt;font style=&quot;font-size: 14px&quot;&gt;تماس با پشتیبانی و درخواست ایجاد دسترسی&amp;nbsp;&lt;/font&gt;" style="whiteSpace=wrap;html=1;fontColor=#ffffff;strokeColor=#2D7600;fillColor=#60a917;" parent="3" vertex="1">
                    <mxGeometry x="475" y="200" width="110" height="50" as="geometry"/>
                </mxCell>
                <mxCell id="195" style="edgeStyle=orthogonalEdgeStyle;rounded=0;orthogonalLoop=1;jettySize=auto;html=1;exitX=1;exitY=0.5;exitDx=0;exitDy=0;" parent="3" source="158" target="14" edge="1">
                    <mxGeometry relative="1" as="geometry"/>
                </mxCell>
                <mxCell id="158" value="&lt;font style=&quot;font-size: 14px&quot;&gt;ثبت اطلاعات مرسوله&amp;nbsp;&lt;/font&gt;" style="whiteSpace=wrap;html=1;fillColor=#60a917;strokeColor=#2D7600;fontColor=#ffffff;" parent="3" vertex="1">
                    <mxGeometry x="630" y="82.5" width="110" height="60" as="geometry"/>
                </mxCell>
                <mxCell id="156" value="" style="edgeStyle=orthogonalEdgeStyle;rounded=0;orthogonalLoop=1;jettySize=auto;html=1;" parent="3" source="157" target="158" edge="1">
                    <mxGeometry relative="1" as="geometry"/>
                </mxCell>
                <mxCell id="46" value="ثبت سفارش&amp;nbsp;" style="whiteSpace=wrap;html=1;rounded=0;fontColor=#ffffff;strokeColor=#2D7600;fillColor=#60a917;" parent="3" vertex="1">
                    <mxGeometry x="1590" y="97.5" width="120" height="60" as="geometry"/>
                </mxCell>
                <mxCell id="204" style="edgeStyle=orthogonalEdgeStyle;rounded=0;orthogonalLoop=1;jettySize=auto;html=1;exitX=1;exitY=0.5;exitDx=0;exitDy=0;entryX=0;entryY=0.25;entryDx=0;entryDy=0;" parent="3" source="45" target="46" edge="1">
                    <mxGeometry relative="1" as="geometry"/>
                </mxCell>
                <mxCell id="45" value="کیف پول شارژ دارد" style="rhombus;whiteSpace=wrap;html=1;rounded=0;fontColor=#ffffff;strokeColor=#6F0000;fillColor=#a20025;" parent="3" vertex="1">
                    <mxGeometry x="1400" y="47.5" width="150" height="135" as="geometry"/>
                </mxCell>
                <mxCell id="75" value="&lt;font style=&quot;font-size: 19px&quot; color=&quot;#191919&quot;&gt;بله&lt;/font&gt;" style="text;html=1;strokeColor=none;fillColor=none;align=center;verticalAlign=middle;whiteSpace=wrap;rounded=0;" parent="3" vertex="1">
                    <mxGeometry x="1550" y="71.25" width="40" height="20" as="geometry"/>
                </mxCell>
                <mxCell id="221" value="&lt;font style=&quot;font-size: 16px&quot;&gt;تایید قوانین سایت&lt;/font&gt;" style="whiteSpace=wrap;html=1;rounded=0;fontColor=#ffffff;strokeColor=#2D7600;fillColor=#60a917;" parent="3" vertex="1">
                    <mxGeometry x="780" y="197.5" width="100" height="47.5" as="geometry"/>
                </mxCell>
                <mxCell id="30" value="" style="swimlane;startSize=20;horizontal=0;" parent="2" vertex="1">
                    <mxGeometry y="312.5" width="2190" height="245" as="geometry"/>
                </mxCell>
                <mxCell id="32" value="دریافت شماره سفارش" style="rounded=0;whiteSpace=wrap;html=1;fillColor=#60a917;strokeColor=#2D7600;fontColor=#ffffff;" parent="30" vertex="1">
                    <mxGeometry x="1200" y="85" width="120" height="60" as="geometry"/>
                </mxCell>
                <mxCell id="230" style="edgeStyle=orthogonalEdgeStyle;rounded=0;orthogonalLoop=1;jettySize=auto;html=1;exitX=0.75;exitY=1;exitDx=0;exitDy=0;entryX=0;entryY=0.5;entryDx=0;entryDy=0;entryPerimeter=0;" edge="1" parent="30" source="38" target="228">
                    <mxGeometry relative="1" as="geometry"/>
                </mxCell>
                <mxCell id="231" style="edgeStyle=orthogonalEdgeStyle;rounded=0;orthogonalLoop=1;jettySize=auto;html=1;exitX=1;exitY=0.5;exitDx=0;exitDy=0;" edge="1" parent="30" source="38" target="40">
                    <mxGeometry relative="1" as="geometry"/>
                </mxCell>
                <mxCell id="38" value="&lt;font style=&quot;font-size: 16px&quot;&gt;اعمال قرارداد مشتری&lt;/font&gt;" style="rounded=0;whiteSpace=wrap;html=1;fillColor=#60a917;strokeColor=#2D7600;fontColor=#ffffff;" parent="30" vertex="1">
                    <mxGeometry x="750" y="78.75" width="120" height="60" as="geometry"/>
                </mxCell>
                <mxCell id="39" value="تلاش برای برقراری ارتباط مجدد با گیت وی" style="whiteSpace=wrap;html=1;rounded=0;fillColor=#60a917;strokeColor=#2D7600;fontColor=#ffffff;" parent="30" vertex="1">
                    <mxGeometry x="1940" y="105" width="130" height="40" as="geometry"/>
                </mxCell>
                <mxCell id="40" value="نمایش شرکت های پستی" style="whiteSpace=wrap;html=1;rounded=0;fontColor=#ffffff;strokeColor=#2D7600;fillColor=#60a917;" parent="30" vertex="1">
                    <mxGeometry x="998" y="78.75" width="120" height="60" as="geometry"/>
                </mxCell>
                <mxCell id="48" value="" style="shape=flexArrow;endArrow=classic;html=1;endWidth=46.74418604651163;endSize=6.96046511627907;width=35.58139534883721;" parent="30" edge="1">
                    <mxGeometry width="50" height="50" relative="1" as="geometry">
                        <mxPoint x="2100" y="124.99999999999999" as="sourcePoint"/>
                        <mxPoint x="2160" y="125.23" as="targetPoint"/>
                        <Array as="points"/>
                    </mxGeometry>
                </mxCell>
                <mxCell id="49" value="&lt;font style=&quot;font-size: 8px&quot;&gt;دریافت کد رهگیری&lt;/font&gt;" style="edgeLabel;html=1;align=center;verticalAlign=middle;resizable=0;points=[];" parent="48" vertex="1" connectable="0">
                    <mxGeometry x="0.1188" y="-2" relative="1" as="geometry">
                        <mxPoint x="-7" y="-2" as="offset"/>
                    </mxGeometry>
                </mxCell>
                <mxCell id="160" value="دسترسی&amp;nbsp;&lt;br&gt;cod&lt;br&gt;دارید" style="rhombus;whiteSpace=wrap;html=1;fontColor=#ffffff;strokeColor=#6F0000;fillColor=#a20025;" parent="30" vertex="1">
                    <mxGeometry x="310" y="60" width="110" height="110" as="geometry"/>
                </mxCell>
                <mxCell id="163" value="ایجاد دسترسی&amp;nbsp;" style="whiteSpace=wrap;html=1;fontColor=#ffffff;strokeColor=#2D7600;fillColor=#60a917;" parent="30" vertex="1">
                    <mxGeometry x="530" y="91.25" width="75" height="47.5" as="geometry"/>
                </mxCell>
                <mxCell id="161" value="&lt;font style=&quot;font-size: 16px&quot; color=&quot;#000000&quot;&gt;بله&lt;/font&gt;" style="text;html=1;strokeColor=none;fillColor=none;align=center;verticalAlign=middle;whiteSpace=wrap;rounded=0;" parent="30" vertex="1">
                    <mxGeometry x="410" y="65" width="40" height="20" as="geometry"/>
                </mxCell>
                <mxCell id="162" value="&lt;font style=&quot;font-size: 16px&quot; color=&quot;#000000&quot;&gt;خیر&lt;/font&gt;" style="text;html=1;strokeColor=none;fillColor=none;align=center;verticalAlign=middle;whiteSpace=wrap;rounded=0;" parent="30" vertex="1">
                    <mxGeometry x="420" y="165" width="40" height="20" as="geometry"/>
                </mxCell>
                <mxCell id="189" style="edgeStyle=orthogonalEdgeStyle;rounded=0;orthogonalLoop=1;jettySize=auto;html=1;exitX=0.5;exitY=1;exitDx=0;exitDy=0;" parent="30" source="163" target="163" edge="1">
                    <mxGeometry relative="1" as="geometry"/>
                </mxCell>
                <mxCell id="214" value="" style="shape=flexArrow;endArrow=classic;html=1;endWidth=46.74418604651163;endSize=6.96046511627907;width=35.58139534883721;" parent="30" edge="1">
                    <mxGeometry width="50" height="50" relative="1" as="geometry">
                        <mxPoint x="630" y="114.8" as="sourcePoint"/>
                        <mxPoint x="690" y="114.8" as="targetPoint"/>
                        <Array as="points"/>
                    </mxGeometry>
                </mxCell>
                <mxCell id="215" value="&lt;span style=&quot;font-size: 8px&quot;&gt;دسترسی COD&lt;/span&gt;" style="edgeLabel;html=1;align=center;verticalAlign=middle;resizable=0;points=[];" parent="214" vertex="1" connectable="0">
                    <mxGeometry x="0.1188" y="-2" relative="1" as="geometry">
                        <mxPoint x="-7" y="-2" as="offset"/>
                    </mxGeometry>
                </mxCell>
                <mxCell id="228" value="&lt;span style=&quot;color: rgb(240 , 240 , 240) ; font-size: 8px&quot;&gt;قرارداد مشتری&lt;/span&gt;" style="shape=singleArrow;whiteSpace=wrap;html=1;arrowWidth=0.4;arrowSize=0.4;rounded=0;" vertex="1" parent="30">
                    <mxGeometry x="910" y="155" width="80" height="60" as="geometry"/>
                </mxCell>
                <mxCell id="50" value="vendor" style="swimlane;startSize=20;horizontal=0;" parent="2" vertex="1">
                    <mxGeometry y="557.5" width="2190" height="190" as="geometry"/>
                </mxCell>
                <mxCell id="51" value="&lt;font style=&quot;font-size: 17px&quot;&gt;&amp;nbsp;استعلام قیمت از شرکت پستی&lt;/font&gt;" style="whiteSpace=wrap;html=1;fillColor=#60a917;strokeColor=#2D7600;fontColor=#ffffff;" parent="50" vertex="1">
                    <mxGeometry x="604" y="60" width="170" height="60" as="geometry"/>
                </mxCell>
                <mxCell id="52" style="edgeStyle=orthogonalEdgeStyle;rounded=0;orthogonalLoop=1;jettySize=auto;html=1;exitX=0.5;exitY=0;exitDx=0;exitDy=0;" parent="50" source="53" target="55" edge="1">
                    <mxGeometry relative="1" as="geometry">
                        <Array as="points">
                            <mxPoint x="1815" y="30"/>
                        </Array>
                    </mxGeometry>
                </mxCell>
                <mxCell id="53" value="اتصال به گیت وی" style="rhombus;whiteSpace=wrap;html=1;rounded=0;fillColor=#a20025;strokeColor=#6F0000;fontColor=#ffffff;" parent="50" vertex="1">
                    <mxGeometry x="1760" y="42.5" width="110" height="95" as="geometry"/>
                </mxCell>
                <mxCell id="54" value="&lt;font style=&quot;font-size: 19px&quot; color=&quot;#191919&quot;&gt;خیر&lt;/font&gt;" style="text;html=1;strokeColor=none;fillColor=none;align=center;verticalAlign=middle;whiteSpace=wrap;rounded=0;" parent="50" vertex="1">
                    <mxGeometry x="1870" y="90" width="40" height="20" as="geometry"/>
                </mxCell>
                <mxCell id="55" value="دریافت کد رهگیری" style="whiteSpace=wrap;html=1;rounded=0;fillColor=#60a917;strokeColor=#2D7600;fontColor=#ffffff;" parent="50" vertex="1">
                    <mxGeometry x="1900" y="10" width="120" height="60" as="geometry"/>
                </mxCell>
                <mxCell id="56" value="&lt;font style=&quot;font-size: 19px&quot; color=&quot;#191919&quot;&gt;بله&lt;/font&gt;" style="text;html=1;strokeColor=none;fillColor=none;align=center;verticalAlign=middle;whiteSpace=wrap;rounded=0;" parent="50" vertex="1">
                    <mxGeometry x="1840" y="10" width="40" height="20" as="geometry"/>
                </mxCell>
                <mxCell id="57" style="edgeStyle=orthogonalEdgeStyle;rounded=0;orthogonalLoop=1;jettySize=auto;html=1;exitX=0.5;exitY=1;exitDx=0;exitDy=0;entryX=0;entryY=0.5;entryDx=0;entryDy=0;" parent="2" source="46" target="53" edge="1">
                    <mxGeometry relative="1" as="geometry"/>
                </mxCell>
                <mxCell id="203" style="edgeStyle=orthogonalEdgeStyle;rounded=0;orthogonalLoop=1;jettySize=auto;html=1;exitX=1;exitY=0.5;exitDx=0;exitDy=0;entryX=0.067;entryY=0.611;entryDx=0;entryDy=0;entryPerimeter=0;" parent="2" source="32" target="45" edge="1">
                    <mxGeometry relative="1" as="geometry"/>
                </mxCell>
                <mxCell id="220" style="edgeStyle=orthogonalEdgeStyle;rounded=0;orthogonalLoop=1;jettySize=auto;html=1;exitX=0.5;exitY=0;exitDx=0;exitDy=0;entryX=0.75;entryY=1;entryDx=0;entryDy=0;fontColor=#000000;" parent="2" source="40" target="22" edge="1">
                    <mxGeometry relative="1" as="geometry"/>
                </mxCell>
                <mxCell id="233" style="edgeStyle=orthogonalEdgeStyle;rounded=0;orthogonalLoop=1;jettySize=auto;html=1;exitX=0;exitY=0.5;exitDx=0;exitDy=0;entryX=0.641;entryY=0.022;entryDx=0;entryDy=0;entryPerimeter=0;" edge="1" parent="2" source="221" target="51">
                    <mxGeometry relative="1" as="geometry"/>
                </mxCell>
                <mxCell id="60" value="ثبت اطلاعات فرستنده" style="swimlane;fontColor=#000000;" parent="1" vertex="1">
                    <mxGeometry x="110" y="1150" width="430" height="310" as="geometry">
                        <mxRectangle x="130" y="1140" width="90" height="23" as="alternateBounds"/>
                    </mxGeometry>
                </mxCell>
                <mxCell id="61" value="&lt;span style=&quot;font-size: 25px&quot;&gt;&lt;font color=&quot;#000000&quot;&gt;استان&lt;br&gt;شهر&lt;br&gt;&lt;/font&gt;&lt;/span&gt;&lt;span style=&quot;color: rgb(0 , 0 , 0) ; font-size: 25px&quot;&gt;آدرس جغرافیایی فرستنده از روی نقشه&lt;/span&gt;&lt;span style=&quot;font-size: 25px&quot;&gt;&lt;font color=&quot;#000000&quot;&gt;&amp;nbsp;&lt;br&gt;کد پستی&lt;br&gt;&amp;nbsp;شماره تماس&lt;br&gt;آدرس متنی&lt;br&gt;نام و نام خانوادگی&lt;br&gt;نام شرکت&amp;nbsp;&lt;br&gt;پست الکترونیک&lt;br&gt;&lt;/font&gt;&lt;/span&gt;" style="text;html=1;align=right;verticalAlign=middle;resizable=0;points=[];autosize=1;strokeColor=none;fontColor=#FFFFFF;" parent="60" vertex="1">
                    <mxGeometry x="20" y="80" width="330" height="160" as="geometry"/>
                </mxCell>
                <mxCell id="66" value="ثبت اطلاعات گیرنده " style="swimlane;fontColor=#000000;" parent="1" vertex="1">
                    <mxGeometry x="1038" y="1070" width="462" height="310" as="geometry"/>
                </mxCell>
                <mxCell id="225" value="&lt;div style=&quot;text-align: right&quot;&gt;&lt;span style=&quot;color: rgb(0 , 0 , 0) ; font-size: 25px&quot;&gt;استان&lt;/span&gt;&lt;/div&gt;&lt;span style=&quot;color: rgb(255 , 255 , 255) ; font-size: 25px&quot;&gt;&lt;div style=&quot;text-align: right&quot;&gt;&lt;span style=&quot;color: rgb(0 , 0 , 0)&quot;&gt;شهر&lt;/span&gt;&lt;/div&gt;&lt;/span&gt;&lt;span style=&quot;color: rgb(0 , 0 , 0) ; font-size: 25px&quot;&gt;&lt;div style=&quot;text-align: right&quot;&gt;&lt;span&gt;آدرس جغرافیایی فرستنده از روی نقشه&lt;/span&gt;&lt;span style=&quot;color: rgb(255 , 255 , 255)&quot;&gt;&lt;font color=&quot;#000000&quot;&gt;&amp;nbsp;&lt;/font&gt;&lt;/span&gt;&lt;/div&gt;&lt;/span&gt;&lt;span style=&quot;color: rgb(255 , 255 , 255) ; font-size: 25px&quot;&gt;&lt;div style=&quot;text-align: right&quot;&gt;&lt;span style=&quot;color: rgb(0 , 0 , 0)&quot;&gt;کد پستی&lt;/span&gt;&lt;/div&gt;&lt;font color=&quot;#000000&quot;&gt;&lt;div style=&quot;text-align: right&quot;&gt;&lt;span&gt;&amp;nbsp;شماره تماس&lt;/span&gt;&lt;/div&gt;&lt;div style=&quot;text-align: right&quot;&gt;&lt;span&gt;آدرس متنی&lt;/span&gt;&lt;/div&gt;&lt;div style=&quot;text-align: right&quot;&gt;&lt;span&gt;نام و نام خانوادگی&lt;/span&gt;&lt;/div&gt;&lt;div style=&quot;text-align: right&quot;&gt;&lt;span&gt;نام شرکت&amp;nbsp;&lt;/span&gt;&lt;/div&gt;&lt;div style=&quot;text-align: right&quot;&gt;&lt;span&gt;پست الکترونیک&lt;/span&gt;&lt;/div&gt;&lt;/font&gt;&lt;/span&gt;" style="text;html=1;align=center;verticalAlign=middle;resizable=0;points=[];autosize=1;strokeColor=none;" parent="66" vertex="1">
                    <mxGeometry x="70" y="100" width="330" height="130" as="geometry"/>
                </mxCell>
                <mxCell id="270" value="" style="shape=ext;double=1;whiteSpace=wrap;html=1;aspect=fixed;fillColor=#a20025;strokeColor=#6F0000;fontColor=#ffffff;" vertex="1" parent="66">
                    <mxGeometry x="412" y="35" width="20" height="20" as="geometry"/>
                </mxCell>
                <mxCell id="271" value="" style="shape=ext;double=1;whiteSpace=wrap;html=1;aspect=fixed;fillColor=#a20025;strokeColor=#6F0000;fontColor=#ffffff;" vertex="1" parent="66">
                    <mxGeometry x="412" y="65" width="20" height="20" as="geometry"/>
                </mxCell>
                <mxCell id="272" value="" style="shape=ext;double=1;whiteSpace=wrap;html=1;aspect=fixed;fillColor=#a20025;strokeColor=#6F0000;fontColor=#ffffff;" vertex="1" parent="66">
                    <mxGeometry x="412" y="125" width="20" height="20" as="geometry"/>
                </mxCell>
                <mxCell id="273" value="" style="shape=ext;double=1;whiteSpace=wrap;html=1;aspect=fixed;fillColor=#a20025;strokeColor=#6F0000;fontColor=#ffffff;" vertex="1" parent="66">
                    <mxGeometry x="412" y="155" width="20" height="20" as="geometry"/>
                </mxCell>
                <mxCell id="274" value="" style="shape=ext;double=1;whiteSpace=wrap;html=1;aspect=fixed;fillColor=#a20025;strokeColor=#6F0000;fontColor=#ffffff;" vertex="1" parent="66">
                    <mxGeometry x="412" y="185" width="20" height="20" as="geometry"/>
                </mxCell>
                <mxCell id="275" value="" style="shape=ext;double=1;whiteSpace=wrap;html=1;aspect=fixed;fillColor=#a20025;strokeColor=#6F0000;fontColor=#ffffff;" vertex="1" parent="66">
                    <mxGeometry x="412" y="215" width="20" height="20" as="geometry"/>
                </mxCell>
                <mxCell id="276" value="" style="shape=ext;double=1;whiteSpace=wrap;html=1;aspect=fixed;" vertex="1" parent="66">
                    <mxGeometry x="412" y="245" width="20" height="20" as="geometry"/>
                </mxCell>
                <mxCell id="277" value="" style="shape=ext;double=1;whiteSpace=wrap;html=1;aspect=fixed;" vertex="1" parent="66">
                    <mxGeometry x="412" y="275" width="20" height="20" as="geometry"/>
                </mxCell>
                <mxCell id="278" value="" style="shape=ext;double=1;whiteSpace=wrap;html=1;aspect=fixed;fillColor=#a20025;strokeColor=#6F0000;fontColor=#ffffff;" vertex="1" parent="66">
                    <mxGeometry x="412" y="95" width="20" height="20" as="geometry"/>
                </mxCell>
                <mxCell id="70" value="bank" style="swimlane;startSize=20;horizontal=0;" parent="1" vertex="1">
                    <mxGeometry x="110" y="840" width="2190" height="170" as="geometry"/>
                </mxCell>
                <mxCell id="72" value="&lt;font style=&quot;font-size: 20px&quot;&gt;شارژ کیف پول&lt;/font&gt;" style="whiteSpace=wrap;html=1;rounded=0;fontColor=#ffffff;strokeColor=#2D7600;fillColor=#60a917;" parent="70" vertex="1">
                    <mxGeometry x="1510" y="55" width="120" height="60" as="geometry"/>
                </mxCell>
                <mxCell id="76" value="" style="edgeStyle=orthogonalEdgeStyle;rounded=0;orthogonalLoop=1;jettySize=auto;html=1;" parent="1" source="45" target="72" edge="1">
                    <mxGeometry relative="1" as="geometry"/>
                </mxCell>
                <mxCell id="47" value="&lt;font style=&quot;font-size: 19px&quot; color=&quot;#191919&quot;&gt;خیر&lt;/font&gt;" style="text;html=1;strokeColor=none;fillColor=none;align=center;verticalAlign=middle;whiteSpace=wrap;rounded=0;" parent="1" vertex="1">
                    <mxGeometry x="1590" y="312.5" width="40" height="20" as="geometry"/>
                </mxCell>
                <mxCell id="205" style="edgeStyle=orthogonalEdgeStyle;rounded=0;orthogonalLoop=1;jettySize=auto;html=1;exitX=1;exitY=0.5;exitDx=0;exitDy=0;" parent="1" source="39" edge="1">
                    <mxGeometry relative="1" as="geometry">
                        <mxPoint x="2210" y="530" as="targetPoint"/>
                    </mxGeometry>
                </mxCell>
                <mxCell id="216" style="edgeStyle=orthogonalEdgeStyle;rounded=0;orthogonalLoop=1;jettySize=auto;html=1;exitX=1;exitY=0.5;exitDx=0;exitDy=0;" parent="1" source="163" edge="1">
                    <mxGeometry relative="1" as="geometry">
                        <mxPoint x="740" y="520" as="targetPoint"/>
                    </mxGeometry>
                </mxCell>
                <mxCell id="232" style="edgeStyle=orthogonalEdgeStyle;rounded=0;orthogonalLoop=1;jettySize=auto;html=1;exitX=0.75;exitY=0;exitDx=0;exitDy=0;entryX=0.25;entryY=1;entryDx=0;entryDy=0;" edge="1" parent="1" source="72" target="46">
                    <mxGeometry relative="1" as="geometry">
                        <Array as="points">
                            <mxPoint x="1730" y="895"/>
                        </Array>
                    </mxGeometry>
                </mxCell>
                <mxCell id="234" value="" style="shape=ext;double=1;whiteSpace=wrap;html=1;aspect=fixed;fillColor=#a20025;strokeColor=#6F0000;fontColor=#ffffff;" vertex="1" parent="1">
                    <mxGeometry x="480" y="1181" width="20" height="20" as="geometry"/>
                </mxCell>
                <mxCell id="235" value="" style="shape=ext;double=1;whiteSpace=wrap;html=1;aspect=fixed;fillColor=#a20025;strokeColor=#6F0000;fontColor=#ffffff;" vertex="1" parent="1">
                    <mxGeometry x="480" y="1211" width="20" height="20" as="geometry"/>
                </mxCell>
                <mxCell id="236" value="" style="shape=ext;double=1;whiteSpace=wrap;html=1;aspect=fixed;fillColor=#a20025;strokeColor=#6F0000;fontColor=#ffffff;" vertex="1" parent="1">
                    <mxGeometry x="480" y="1271" width="20" height="20" as="geometry"/>
                </mxCell>
                <mxCell id="237" value="" style="shape=ext;double=1;whiteSpace=wrap;html=1;aspect=fixed;fillColor=#a20025;strokeColor=#6F0000;fontColor=#ffffff;" vertex="1" parent="1">
                    <mxGeometry x="480" y="1301" width="20" height="20" as="geometry"/>
                </mxCell>
                <mxCell id="238" value="" style="shape=ext;double=1;whiteSpace=wrap;html=1;aspect=fixed;fillColor=#a20025;strokeColor=#6F0000;fontColor=#ffffff;" vertex="1" parent="1">
                    <mxGeometry x="480" y="1331" width="20" height="20" as="geometry"/>
                </mxCell>
                <mxCell id="239" value="" style="shape=ext;double=1;whiteSpace=wrap;html=1;aspect=fixed;fillColor=#a20025;strokeColor=#6F0000;fontColor=#ffffff;" vertex="1" parent="1">
                    <mxGeometry x="480" y="1361" width="20" height="20" as="geometry"/>
                </mxCell>
                <mxCell id="240" value="" style="shape=ext;double=1;whiteSpace=wrap;html=1;aspect=fixed;" vertex="1" parent="1">
                    <mxGeometry x="480" y="1391" width="20" height="20" as="geometry"/>
                </mxCell>
                <mxCell id="241" value="" style="shape=ext;double=1;whiteSpace=wrap;html=1;aspect=fixed;" vertex="1" parent="1">
                    <mxGeometry x="480" y="1421" width="20" height="20" as="geometry"/>
                </mxCell>
                <mxCell id="242" value="" style="shape=ext;double=1;whiteSpace=wrap;html=1;aspect=fixed;fillColor=#a20025;strokeColor=#6F0000;fontColor=#ffffff;" vertex="1" parent="1">
                    <mxGeometry x="480" y="1241" width="20" height="20" as="geometry"/>
                </mxCell>
                <mxCell id="252" value=" ثبت اطلاعات  مرسوله" style="swimlane;fontColor=#000000;" vertex="1" parent="1">
                    <mxGeometry x="590" y="1149.75" width="340" height="241.25" as="geometry"/>
                </mxCell>
                <mxCell id="253" value="&lt;font style=&quot;font-size: 24px&quot;&gt;&lt;font color=&quot;#000000&quot;&gt;محتوایات مرسوله&amp;nbsp;&lt;br&gt;&lt;/font&gt;&lt;font color=&quot;#000000&quot;&gt;ابعاد مرسوله&lt;br&gt;ارزش ریالی کالا&lt;br&gt;تعداد بسته ها&amp;nbsp;&lt;br&gt;وزن مرسوله&amp;nbsp;&lt;br&gt;&lt;/font&gt;&lt;font color=&quot;#000000&quot;&gt;انتخاب بیمه&lt;br&gt;کارتون نیاز دارید&amp;nbsp;&lt;/font&gt;&lt;br&gt;&lt;/font&gt;" style="text;html=1;align=right;verticalAlign=middle;resizable=0;points=[];autosize=1;strokeColor=none;fontColor=#FFFFFF;" vertex="1" parent="252">
                    <mxGeometry x="130" y="60" width="160" height="130" as="geometry"/>
                </mxCell>
                <mxCell id="254" value="" style="shape=ext;double=1;whiteSpace=wrap;html=1;aspect=fixed;fillColor=#a20025;strokeColor=#6F0000;fontColor=#ffffff;" vertex="1" parent="252">
                    <mxGeometry x="300" y="30" width="20" height="20" as="geometry"/>
                </mxCell>
                <mxCell id="255" value="" style="shape=ext;double=1;whiteSpace=wrap;html=1;aspect=fixed;fillColor=#a20025;strokeColor=#6F0000;fontColor=#ffffff;" vertex="1" parent="252">
                    <mxGeometry x="300" y="57.5" width="20" height="20" as="geometry"/>
                </mxCell>
                <mxCell id="256" value="" style="shape=ext;double=1;whiteSpace=wrap;html=1;aspect=fixed;fillColor=#a20025;strokeColor=#6F0000;fontColor=#ffffff;" vertex="1" parent="252">
                    <mxGeometry x="300" y="170" width="20" height="20" as="geometry"/>
                </mxCell>
                <mxCell id="257" value="" style="shape=ext;double=1;whiteSpace=wrap;html=1;aspect=fixed;fillColor=#a20025;strokeColor=#6F0000;fontColor=#ffffff;" vertex="1" parent="252">
                    <mxGeometry x="300" y="140" width="20" height="20" as="geometry"/>
                </mxCell>
                <mxCell id="258" value="" style="shape=ext;double=1;whiteSpace=wrap;html=1;aspect=fixed;fillColor=#a20025;strokeColor=#6F0000;fontColor=#ffffff;" vertex="1" parent="252">
                    <mxGeometry x="300" y="90" width="20" height="20" as="geometry"/>
                </mxCell>
                <mxCell id="259" value="" style="shape=ext;double=1;whiteSpace=wrap;html=1;aspect=fixed;" vertex="1" parent="252">
                    <mxGeometry x="300" y="200" width="20" height="20" as="geometry"/>
                </mxCell>
                <mxCell id="260" value="" style="shape=ext;double=1;whiteSpace=wrap;html=1;aspect=fixed;fillColor=#a20025;strokeColor=#6F0000;fontColor=#ffffff;" vertex="1" parent="252">
                    <mxGeometry x="300" y="115" width="20" height="20" as="geometry"/>
                </mxCell>
                <mxCell id="279" value="انتخاب خدمات ارزش افزوده" style="swimlane;startSize=23;fontColor=#000000;" vertex="1" parent="1">
                    <mxGeometry x="1550" y="1070" width="310" height="235" as="geometry"/>
                </mxCell>
                <mxCell id="280" value="&lt;div style=&quot;font-size: 25px&quot;&gt;&lt;font style=&quot;font-size: 25px&quot; color=&quot;#000000&quot;&gt;چاپ فاکتور&lt;/font&gt;&lt;/div&gt;&lt;div style=&quot;font-size: 25px&quot;&gt;&lt;span&gt;&lt;font style=&quot;font-size: 25px&quot; color=&quot;#000000&quot;&gt;کد تخفیف&lt;/font&gt;&lt;/span&gt;&lt;/div&gt;&lt;div style=&quot;font-size: 25px&quot;&gt;&lt;span&gt;&lt;font style=&quot;font-size: 25px&quot; color=&quot;#000000&quot;&gt;فعال کردن اطلاع رسانی پیامکی&lt;/font&gt;&lt;/span&gt;&lt;/div&gt;&lt;div style=&quot;font-size: 25px&quot;&gt;&lt;font style=&quot;font-size: 25px&quot; color=&quot;#000000&quot;&gt;چاپ برند تجاری&amp;nbsp;&lt;/font&gt;&lt;/div&gt;" style="text;html=1;align=right;verticalAlign=middle;resizable=0;points=[];autosize=1;strokeColor=none;fontColor=#FFFFFF;" vertex="1" parent="279">
                    <mxGeometry x="-10" y="80" width="280" height="60" as="geometry"/>
                </mxCell>
                <mxCell id="281" value="" style="shape=ext;double=1;whiteSpace=wrap;html=1;aspect=fixed;fillColor=#a20025;strokeColor=#6F0000;fontColor=#ffffff;" vertex="1" parent="279">
                    <mxGeometry x="280" y="55" width="20" height="20" as="geometry"/>
                </mxCell>
                <mxCell id="282" value="" style="shape=ext;double=1;whiteSpace=wrap;html=1;aspect=fixed;" vertex="1" parent="279">
                    <mxGeometry x="280" y="90" width="20" height="20" as="geometry"/>
                </mxCell>
                <mxCell id="283" value="" style="shape=ext;double=1;whiteSpace=wrap;html=1;aspect=fixed;" vertex="1" parent="279">
                    <mxGeometry x="280" y="150" width="20" height="20" as="geometry"/>
                </mxCell>
                <mxCell id="284" value="" style="shape=ext;double=1;whiteSpace=wrap;html=1;aspect=fixed;" vertex="1" parent="279">
                    <mxGeometry x="280" y="117.5" width="20" height="20" as="geometry"/>
                </mxCell>
                <mxCell id="291" value="قرارداد مشتری" style="swimlane;fontColor=#000000;" vertex="1" parent="1">
                    <mxGeometry x="1950" y="1053.5" width="340" height="307.5" as="geometry">
                        <mxRectangle x="130" y="1140" width="90" height="23" as="alternateBounds"/>
                    </mxGeometry>
                </mxCell>
                <mxCell id="292" value="&lt;font color=&quot;#000000&quot;&gt;&lt;span style=&quot;font-size: 25px&quot;&gt;نماینده&lt;br&gt;مشتری&lt;br&gt;جمع اور&lt;br&gt;پرینت&lt;br&gt;تخفیف ها&amp;nbsp;&lt;br&gt;بازاریاب&lt;br&gt;لیزینگ&lt;br&gt;لفاف و بسته بندی&lt;br&gt;انبار داری&lt;br&gt;&lt;br&gt;&lt;/span&gt;&lt;/font&gt;" style="text;html=1;align=right;verticalAlign=middle;resizable=0;points=[];autosize=1;strokeColor=none;fontColor=#FFFFFF;" vertex="1" parent="291">
                    <mxGeometry x="143" y="95" width="160" height="180" as="geometry"/>
                </mxCell>
            </root>
        </mxGraphModel>
    </diagram>
</mxfile>